<svg xmlns="http://www.w3.org/2000/svg" viewBox="0 0 64 64">
  <rect width="64" height="64" rx="12" fill="#0b0f1a"/>
  <g transform="translate(6 6)">
    <rect x="13" y="13" width="5"  height="5"  fill="none" stroke="#f5a623" stroke-width="0.8" opacity="0.35"/>
    <rect x="8"  y="13" width="5"  height="5"  fill="none" stroke="#f5a623" stroke-width="0.8" opacity="0.45"/>
    <rect x="8"  y="18" width="10" height="10" fill="none" stroke="#f5a623" stroke-width="0.8" opacity="0.55"/>
    <rect x="18" y="13" width="15" height="15" fill="none" stroke="#f5a623" stroke-width="0.8" opacity="0.65"/>
    <rect x="8"  y="28" width="25" height="25" fill="none" stroke="#f5a623" stroke-width="0.8" opacity="0.75"/>
    <path d="M 18 13 A 5 5 0 0 1 13 18 A 5 5 0 0 1 8 13 A 10 10 0 0 1 18 23 A 15 15 0 0 1 33 8 A 25 25 0 0 1 8 33 A 40 40 0 0 1 48 73"
          fill="none" stroke="#fbbf24" stroke-width="2.4" stroke-linecap="round"/>
  </g>
</svg>
